<svg width="1024" height="1024" viewBox="0 0 1024 1024" fill="none" xmlns="http://www.w3.org/2000/svg">
<path d="M640 224H256C239.026 224 222.747 230.743 210.745 242.745C198.743 254.747 192 271.026 192 288V896C192 901.88 193.62 907.646 196.682 912.665C199.744 917.685 204.129 921.764 209.357 924.454C214.585 927.145 220.453 928.343 226.318 927.917C232.182 927.491 237.816 925.458 242.6 922.04L448 775.32L653.44 922.04C658.224 925.446 663.854 927.47 669.712 927.89C675.57 928.31 681.431 927.11 686.652 924.421C691.873 921.732 696.254 917.658 699.314 912.645C702.374 907.632 703.995 901.873 704 896V288C704 271.026 697.257 254.747 685.255 242.745C673.252 230.743 656.974 224 640 224Z" fill="url(#paint0_linear_1303_2)"/>
<path d="M768 96H352C343.513 96 335.374 99.3714 329.373 105.373C323.371 111.374 320 119.513 320 128C320 136.487 323.371 144.626 329.373 150.627C335.374 156.629 343.513 160 352 160H768V768C768 776.487 771.371 784.626 777.373 790.627C783.374 796.629 791.513 800 800 800C808.487 800 816.626 796.629 822.627 790.627C828.629 784.626 832 776.487 832 768V160C832 143.026 825.257 126.747 813.255 114.745C801.252 102.743 784.974 96 768 96Z" fill="url(#paint1_linear_1303_2)"/>
<defs>
<linearGradient id="paint0_linear_1303_2" x1="192" y1="576" x2="704" y2="576" gradientUnits="userSpaceOnUse">
<stop stop-color="#00D2FF"/>
<stop offset="1" stop-color="#3A7BD5"/>
</linearGradient>
<linearGradient id="paint1_linear_1303_2" x1="320" y1="448" x2="832" y2="448" gradientUnits="userSpaceOnUse">
<stop stop-color="#00D2FF"/>
<stop offset="1" stop-color="#3A7BD5"/>
</linearGradient>
</defs>
</svg>
